<?xml version="1.0" encoding="UTF-8"?>
<svg width="1414px" height="317px" viewBox="0 0 1414 317" version="1.1" xmlns="http://www.w3.org/2000/svg" xmlns:xlink="http://www.w3.org/1999/xlink">
    <title>Group 71</title>
    <g id="Page-1" stroke="none" stroke-width="1" fill="none" fill-rule="evenodd">
        <g id="Group-71" fill="#1DA1F2" fill-rule="nonzero">
            <path d="M390,37.5247 C375.652,43.8906 360.229,48.1912 344.046,50.1259 C360.565,40.222 373.253,24.5393 379.226,5.85108 C363.765,15.0236 346.642,21.682 328.415,25.2707 C313.821,9.71663 293.026,0 270.012,0 C225.825,0 189.998,35.8298 189.998,80.0248 C189.998,86.2971 190.706,92.4056 192.071,98.2625 C125.572,94.9255 66.6154,63.0645 27.1512,14.6471 C20.2638,26.4662 16.317,40.2123 16.317,54.879 C16.317,82.6441 30.4428,107.139 51.9123,121.489 C38.7966,121.074 26.4589,117.473 15.6715,111.48 C15.6624,111.814 15.6624,112.149 15.6624,112.486 C15.6624,151.259 43.2433,183.602 79.8468,190.959 C73.1329,192.788 66.0642,193.765 58.7672,193.765 C53.6114,193.765 48.6,193.262 43.7133,192.33 C53.8962,224.122 83.4445,247.259 118.459,247.903 C91.0749,269.369 56.5755,282.163 19.0866,282.163 C12.6282,282.163 6.25952,281.783 0,281.043 C35.4101,303.751 77.4678,317 122.653,317 C269.826,317 350.308,195.058 350.308,89.3026 C350.308,85.8329 350.23,82.3827 350.076,78.9482 C365.707,67.6673 379.272,53.5741 390,37.5247 L390,37.5247 Z" id="Path"></path>
            <path d="M498.988,107.463 L449.347,107.463 C445.282,107.463 442.283,106.689 440.347,105.141 C438.412,103.593 437.444,100.787 437.444,96.7223 L437.444,74.0788 C437.444,70.0146 438.412,67.2083 440.347,65.6601 C442.283,64.1118 445.282,63.3376 449.347,63.3376 L600.303,63.3376 C604.368,63.3376 607.367,64.1118 609.303,65.6601 C611.238,67.2083 612.206,70.0146 612.206,74.0788 L612.206,96.7223 C612.206,100.787 611.238,103.593 609.303,105.141 C607.367,106.689 604.368,107.463 600.303,107.463 L548.339,107.463 L550.372,263.645 C550.372,268.677 549.597,272.064 548.049,273.806 C546.501,275.741 543.598,276.709 539.34,276.709 L512.052,276.709 C507.988,276.709 505.085,275.741 503.343,273.806 C501.794,272.064 501.02,268.677 501.02,263.645 L498.988,107.463 Z" id="Path"></path>
            <path d="M747.15,275.258 C741.344,275.838 735.538,276.225 729.732,276.419 C724.12,276.612 718.217,276.709 712.024,276.709 L669.35,276.709 C658.705,276.709 649.706,274.774 642.352,270.903 C635.191,267.032 629.482,261.904 625.224,255.517 C620.773,249.324 617.676,242.26 615.934,234.325 C614.192,226.39 613.515,218.359 613.902,210.23 L617.676,133.01 C618.063,127.204 619.031,123.236 620.579,121.108 C622.321,118.785 625.708,117.624 630.74,117.624 L652.512,117.624 C657.544,117.624 661.124,118.785 663.253,121.108 C665.382,123.236 666.253,127.204 665.866,133.01 L662.673,198.037 C662.286,205.585 662.479,211.682 663.253,216.326 C664.027,220.778 665.382,224.165 667.318,226.487 C669.253,228.809 671.769,230.358 674.865,231.132 C678.155,231.712 682.026,231.906 686.477,231.712 L711.443,231.132 L713.185,133.01 C713.379,127.204 714.346,123.236 716.088,121.108 C717.83,118.785 721.217,117.624 726.249,117.624 L748.602,117.624 C753.634,117.624 757.117,118.785 759.053,121.108 C760.988,123.236 761.859,127.204 761.665,133.01 L759.633,260.742 C759.633,263.452 759.44,265.678 759.053,267.419 C758.859,269.161 758.375,270.613 757.601,271.774 C756.634,272.742 755.279,273.516 753.537,274.096 C751.989,274.677 749.86,275.064 747.15,275.258 Z" id="Path"></path>
            <path d="M793.991,144.332 C793.991,138.526 794.862,134.558 796.604,132.429 C798.539,130.3 802.023,129.236 807.054,129.236 L829.698,129.236 C834.73,129.236 838.213,130.397 840.149,132.72 C842.084,134.849 843.052,138.719 843.052,144.332 L843.632,261.323 C843.632,267.129 842.665,271.097 840.729,273.225 C838.794,275.548 835.31,276.709 830.279,276.709 L807.054,276.709 C802.023,276.709 798.539,275.548 796.604,273.225 C794.862,271.097 793.991,267.129 793.991,261.323 L793.991,144.332 Z M790.507,86.8521 C790.507,79.1107 793.023,72.8208 798.055,67.9825 C803.281,62.9506 809.764,60.4346 817.505,60.4346 C825.247,60.4346 831.827,62.9506 837.246,67.9825 C842.665,72.8208 845.374,79.1107 845.374,86.8521 C845.374,94.5934 842.665,100.883 837.246,105.722 C831.827,110.56 825.247,112.979 817.505,112.979 C809.764,112.979 803.281,110.56 798.055,105.722 C793.023,100.883 790.507,94.5934 790.507,86.8521 Z" id="Shape"></path>
            <path d="M894.156,164.943 L876.738,164.943 C871.9,164.943 868.706,164.266 867.158,162.911 C865.61,161.556 864.836,158.653 864.836,154.202 L864.836,131.268 C864.836,126.817 865.61,123.914 867.158,122.559 C868.706,121.204 871.9,120.527 876.738,120.527 L894.156,120.527 L894.156,78.4333 C894.156,72.8208 895.124,68.9501 897.059,66.8213 C898.995,64.4989 902.478,63.3376 907.51,63.3376 L930.154,63.3376 C935.185,63.3376 938.572,64.4021 940.314,66.531 C942.249,68.6598 943.217,72.6273 943.217,78.4333 L943.217,120.527 L971.086,120.527 C975.924,120.527 979.118,121.204 980.666,122.559 C982.214,123.914 982.988,126.817 982.988,131.268 L982.988,154.202 C982.988,158.653 982.214,161.556 980.666,162.911 C979.118,164.266 975.924,164.943 971.086,164.943 L943.217,164.943 L943.217,219.229 C943.217,225.422 944.572,229.583 947.281,231.712 C949.991,233.648 953.474,234.615 957.732,234.615 C961.216,234.615 964.312,234.519 967.022,234.325 C969.731,233.938 972.538,233.551 975.441,233.164 C978.924,232.583 980.666,233.938 980.666,237.228 L981.537,270.322 C981.537,272.451 981.15,273.903 980.376,274.677 C979.602,275.645 978.15,276.322 976.021,276.709 C970.602,277.483 964.893,278.161 958.893,278.741 C953.087,279.322 948.249,279.612 944.378,279.612 C926.96,279.612 914.187,274.87 906.059,265.387 C898.124,255.904 894.156,242.744 894.156,225.906 L894.156,164.943 Z" id="Path"></path>
            <path d="M1027.68,164.943 L1010.27,164.943 C1005.43,164.943 1002.23,164.266 1000.69,162.911 C999.137,161.556 998.363,158.653 998.363,154.202 L998.363,131.268 C998.363,126.817 999.137,123.914 1000.69,122.559 C1002.23,121.204 1005.43,120.527 1010.27,120.527 L1027.68,120.527 L1027.68,78.4333 C1027.68,72.8208 1028.65,68.9501 1030.59,66.8213 C1032.52,64.4989 1036.01,63.3376 1041.04,63.3376 L1063.68,63.3376 C1068.71,63.3376 1072.1,64.4021 1073.84,66.531 C1075.78,68.6598 1076.74,72.6273 1076.74,78.4333 L1076.74,120.527 L1104.61,120.527 C1109.45,120.527 1112.64,121.204 1114.19,122.559 C1115.74,123.914 1116.52,126.817 1116.52,131.268 L1116.52,154.202 C1116.52,158.653 1115.74,161.556 1114.19,162.911 C1112.64,164.266 1109.45,164.943 1104.61,164.943 L1076.74,164.943 L1076.74,219.229 C1076.74,225.422 1078.1,229.583 1080.81,231.712 C1083.52,233.648 1087,234.615 1091.26,234.615 C1094.74,234.615 1097.84,234.519 1100.55,234.325 C1103.26,233.938 1106.06,233.551 1108.97,233.164 C1112.45,232.583 1114.19,233.938 1114.19,237.228 L1115.06,270.322 C1115.06,272.451 1114.68,273.903 1113.9,274.677 C1113.13,275.645 1111.68,276.322 1109.55,276.709 C1104.13,277.483 1098.42,278.161 1092.42,278.741 C1086.61,279.322 1081.78,279.612 1077.91,279.612 C1060.49,279.612 1047.71,274.87 1039.59,265.387 C1031.65,255.904 1027.68,242.744 1027.68,225.906 L1027.68,164.943 Z" id="Path"></path>
            <path d="M1208.02,117.624 C1231.63,117.624 1249.82,125.269 1262.59,140.558 C1275.56,155.847 1282.62,177.039 1283.79,204.134 C1283.98,208.004 1283.4,210.617 1282.04,211.972 C1280.88,213.327 1278.56,214.198 1275.08,214.585 L1182.76,221.842 C1184.7,227.842 1188.57,232.196 1194.37,234.906 C1200.18,237.615 1206.76,239.067 1214.11,239.26 C1221.47,239.647 1229.11,239.067 1237.05,237.518 C1244.98,235.777 1252.05,233.454 1258.24,230.551 C1263.27,228.229 1265.88,229.874 1266.08,235.486 L1267.82,261.904 C1268.01,264.226 1267.63,266.065 1266.66,267.419 C1265.88,268.774 1264.14,269.935 1261.43,270.903 C1253.5,273.806 1245.08,275.935 1236.18,277.29 C1227.47,278.838 1219.73,279.612 1212.95,279.612 C1200.57,279.612 1189.44,277.58 1179.57,273.516 C1169.89,269.645 1161.67,264.033 1154.89,256.678 C1147.92,249.517 1142.6,240.905 1138.93,230.841 C1135.44,220.778 1133.7,209.746 1133.7,197.747 C1133.7,187.296 1135.35,177.232 1138.64,167.556 C1141.93,157.879 1146.76,149.267 1153.15,141.719 C1159.54,134.365 1167.28,128.559 1176.37,124.301 C1185.66,119.85 1196.21,117.624 1208.02,117.624 Z M1236.76,179.748 C1234.63,172.588 1231.43,167.169 1227.18,163.492 C1223.11,159.621 1217.21,157.686 1209.47,157.686 C1201.34,157.686 1194.66,160.298 1189.44,165.524 C1184.21,170.749 1181.12,177.039 1180.15,184.393 L1236.76,179.748 Z" id="Shape"></path>
            <path d="M1301.95,137.074 C1301.76,131.462 1302.63,127.688 1304.56,125.752 C1306.69,123.624 1310.18,122.269 1315.01,121.688 C1321.79,120.914 1329.53,120.237 1338.24,119.656 C1346.95,118.882 1355.56,118.301 1364.07,117.914 C1372.59,117.721 1380.62,117.624 1388.17,117.624 C1395.72,117.624 1401.72,117.818 1406.17,118.205 C1409.26,118.592 1411.2,119.463 1411.97,120.817 C1412.94,122.172 1413.33,124.785 1413.14,128.655 L1411.68,154.783 C1411.3,159.04 1410.23,161.459 1408.49,162.04 C1406.94,162.621 1403.94,162.911 1399.49,162.911 C1396.78,162.911 1393.49,163.008 1389.62,163.201 C1385.94,163.201 1382.07,163.298 1378.01,163.492 C1373.75,163.879 1369.59,164.266 1365.53,164.653 C1361.46,165.04 1357.78,165.427 1354.49,165.814 L1353.91,261.323 C1353.91,267.129 1352.95,271.097 1351.01,273.225 C1349.08,275.548 1345.59,276.709 1340.56,276.709 L1317.34,276.709 C1312.3,276.709 1308.92,275.548 1307.18,273.225 C1305.43,271.097 1304.47,267.129 1304.27,261.323 L1301.95,137.074 Z" id="Path"></path>
        </g>
    </g>
</svg>